<svg xmlns="http://www.w3.org/2000/svg" viewBox="5969 2794 1156 1156"><path fill="#FFF" d="M6100.01 2990.02a62.4 62.4 0 0 1-32.5-8.7 62.54 62.54 0 0 1-23.8-23.8 62.4 62.4 0 0 1-8.71-32.5 62.4 62.4 0 0 1 8.7-32.51 62.54 62.54 0 0 1 23.8-23.8 62.4 62.4 0 0 1 32.51-8.71 62.4 62.4 0 0 1 32.5 8.7 62.54 62.54 0 0 1 23.81 23.8 62.4 62.4 0 0 1 8.7 32.51 62.4 62.4 0 0 1-8.7 32.5 62.54 62.54 0 0 1-23.8 23.81 62.4 62.4 0 0 1-32.5 8.7Zm731.39 0a62.4 62.4 0 0 1-32.51-8.7 62.54 62.54 0 0 1-23.8-23.8 62.4 62.4 0 0 1-8.7-32.5 62.4 62.4 0 0 1 8.7-32.51 62.54 62.54 0 0 1 23.8-23.8 62.4 62.4 0 0 1 32.5-8.71 62.4 62.4 0 0 1 32.51 8.7 62.54 62.54 0 0 1 23.8 23.8 62.4 62.4 0 0 1 8.7 32.51 62.4 62.4 0 0 1-8.7 32.5 62.54 62.54 0 0 1-23.8 23.81 62.4 62.4 0 0 1-32.5 8.7Zm-731.39 731.38a62.4 62.4 0 0 1-32.5-8.7 62.54 62.54 0 0 1-23.8-23.8 62.4 62.4 0 0 1-8.71-32.5 62.4 62.4 0 0 1 8.7-32.51 62.54 62.54 0 0 1 23.8-23.8 62.4 62.4 0 0 1 32.51-8.7 62.4 62.4 0 0 1 32.5 8.7 62.54 62.54 0 0 1 23.81 23.8 62.4 62.4 0 0 1 8.7 32.5 62.4 62.4 0 0 1-8.7 32.51 62.54 62.54 0 0 1-23.8 23.8 62.4 62.4 0 0 1-32.5 8.7Zm162.53 162.54a62.4 62.4 0 0 1-32.5-8.7 62.54 62.54 0 0 1-23.8-23.81 62.4 62.4 0 0 1-8.71-32.5 62.4 62.4 0 0 1 8.7-32.51 62.54 62.54 0 0 1 23.8-23.8 62.4 62.4 0 0 1 32.51-8.7 62.4 62.4 0 0 1 32.5 8.7 62.54 62.54 0 0 1 23.81 23.8 62.4 62.4 0 0 1 8.7 32.5 62.4 62.4 0 0 1-8.7 32.51 62.54 62.54 0 0 1-23.8 23.8 62.4 62.4 0 0 1-32.5 8.7Zm731.38 0a62.4 62.4 0 0 1-32.5-8.7 62.54 62.54 0 0 1-23.8-23.81 62.4 62.4 0 0 1-8.7-32.5 62.4 62.4 0 0 1 8.7-32.51 62.54 62.54 0 0 1 23.8-23.8 62.4 62.4 0 0 1 32.5-8.7 62.4 62.4 0 0 1 32.51 8.7 62.54 62.54 0 0 1 23.8 23.8 62.4 62.4 0 0 1 8.7 32.5 62.4 62.4 0 0 1-8.7 32.51 62.54 62.54 0 0 1-23.8 23.8 62.4 62.4 0 0 1-32.5 8.7Z"/><path fill="#FFF" d="M6465.7 3697.03h-406.32v-812.65h812.65v812.65H6465.7Zm528.22-544.48a62.4 62.4 0 0 1-32.5-8.7 62.54 62.54 0 0 1-23.8-23.8 62.4 62.4 0 0 1-8.7-32.5 62.4 62.4 0 0 1 8.7-32.51 62.54 62.54 0 0 1 23.8-23.8 62.4 62.4 0 0 1 32.5-8.71 62.4 62.4 0 0 1 32.51 8.7 62.54 62.54 0 0 1 23.8 23.8 62.4 62.4 0 0 1 8.7 32.51 62.4 62.4 0 0 1-8.7 32.5 62.54 62.54 0 0 1-23.8 23.81 62.4 62.4 0 0 1-32.5 8.7Z"/><path fill="#FFF" d="M6628.23 3859.56h-406.32V3046.9h812.65v812.65h-406.33Z"/><path fill="#141719" d="M6465.7 3656.4h-365.69v-739.51h731.38v739.5H6465.7Z"/><path fill="#38454F" d="M6469.8 2941.26h-353.54v-32.5h707v32.5H6469.8Zm0 731.39h-353.54v-32.5h707.07v32.5H6469.8Zm-369.79-32.51h-16.25V2949.4h32.5v690.75h-16.25Z"/><path fill="#38454F" d="M6831.4 3640.2h-16.26v-690.74h32.5v690.75h-16.25Z"/><path fill="#0E1012" d="M6831.4 2965.64a38.9 38.9 0 0 1-20.29-5.43 39.09 39.09 0 0 1-14.9-14.85 39.3 39.3 0 0 1-5.45-20.35 38.9 38.9 0 0 1 5.44-20.28 38.81 38.81 0 0 1 14.91-14.91 38.9 38.9 0 0 1 20.28-5.44 39.3 39.3 0 0 1 20.35 5.44 39.37 39.37 0 0 1 14.85 14.84 39.3 39.3 0 0 1 5.44 20.35 38.9 38.9 0 0 1-5.44 20.29 39.09 39.09 0 0 1-14.85 14.9 39.3 39.3 0 0 1-20.35 5.44Zm0 731.39a38.9 38.9 0 0 1-20.29-5.44 39.09 39.09 0 0 1-14.9-14.85 39.3 39.3 0 0 1-5.45-20.35 38.9 38.9 0 0 1 5.44-20.28 38.81 38.81 0 0 1 14.91-14.9 38.9 38.9 0 0 1 20.28-5.45 39.3 39.3 0 0 1 20.35 5.44 39.09 39.09 0 0 1 14.85 14.91 38.9 38.9 0 0 1 5.44 20.28 39.3 39.3 0 0 1-5.44 20.35 39.37 39.37 0 0 1-14.85 14.85 39.3 39.3 0 0 1-20.35 5.44Zm-731.39 0a38.9 38.9 0 0 1-20.28-5.44 39.09 39.09 0 0 1-14.91-14.85 39.3 39.3 0 0 1-5.44-20.35 38.9 38.9 0 0 1 5.44-20.28 38.81 38.81 0 0 1 14.9-14.9 38.9 38.9 0 0 1 20.3-5.45 39.3 39.3 0 0 1 20.34 5.44 39.09 39.09 0 0 1 14.85 14.91 38.9 38.9 0 0 1 5.43 20.28 39.3 39.3 0 0 1-5.43 20.35 39.37 39.37 0 0 1-14.85 14.85 39.3 39.3 0 0 1-20.35 5.44Zm0-731.39a38.9 38.9 0 0 1-20.28-5.43 39.09 39.09 0 0 1-14.91-14.85 39.3 39.3 0 0 1-5.44-20.35 38.9 38.9 0 0 1 5.44-20.28 38.81 38.81 0 0 1 14.9-14.91 38.9 38.9 0 0 1 20.3-5.44 39.3 39.3 0 0 1 20.34 5.44 39.37 39.37 0 0 1 14.85 14.84 39.3 39.3 0 0 1 5.43 20.35 38.9 38.9 0 0 1-5.43 20.29 39.09 39.09 0 0 1-14.85 14.9 39.3 39.3 0 0 1-20.35 5.44Z"/><path fill="#21217F" d="M6628.23 3818.92h-365.69v-739.5h731.38v739.5h-365.69Z"/><path fill="#7A76FF" d="M6632.33 3103.8h-353.54v-32.51h707v32.5h-353.46Zm0 731.38h-353.54v-32.5h707.07v32.5h-353.53Zm-369.79-32.51h-16.25v-690.75h32.5v690.75h-16.25Z"/><path fill="#7A76FF" d="M6993.92 3802.74h-16.25v-690.76h32.5v690.76h-16.25Z"/><path fill="#3479F3" d="M6993.92 3128.17a38.9 38.9 0 0 1-20.28-5.44 39.09 39.09 0 0 1-14.9-14.84 39.3 39.3 0 0 1-5.45-20.35 38.9 38.9 0 0 1 5.44-20.28 38.81 38.81 0 0 1 14.91-14.91 38.9 38.9 0 0 1 20.28-5.44 39.3 39.3 0 0 1 20.35 5.44 39.09 39.09 0 0 1 14.85 14.9 38.9 38.9 0 0 1 5.44 20.3 38.9 38.9 0 0 1-5.44 20.28 39.09 39.09 0 0 1-14.85 14.9 39.3 39.3 0 0 1-20.35 5.44Zm0 731.39a38.9 38.9 0 0 1-20.28-5.44 39.09 39.09 0 0 1-14.9-14.85 39.3 39.3 0 0 1-5.45-20.35 38.9 38.9 0 0 1 5.44-20.28 38.81 38.81 0 0 1 14.91-14.9 38.9 38.9 0 0 1 20.28-5.45 39.3 39.3 0 0 1 20.35 5.44 39.09 39.09 0 0 1 14.85 14.91 38.9 38.9 0 0 1 5.44 20.28 39.3 39.3 0 0 1-5.44 20.35 39.37 39.37 0 0 1-14.85 14.85 39.3 39.3 0 0 1-20.35 5.44Zm-731.38 0a38.9 38.9 0 0 1-20.28-5.44 39.09 39.09 0 0 1-14.91-14.85 39.3 39.3 0 0 1-5.44-20.35 38.9 38.9 0 0 1 5.44-20.28 38.81 38.81 0 0 1 14.9-14.9 38.9 38.9 0 0 1 20.3-5.45 39.3 39.3 0 0 1 20.34 5.44 39.09 39.09 0 0 1 14.84 14.91 38.9 38.9 0 0 1 5.44 20.28 39.3 39.3 0 0 1-5.44 20.35 39.37 39.37 0 0 1-14.84 14.85 39.3 39.3 0 0 1-20.35 5.44Zm0-731.39a38.9 38.9 0 0 1-20.28-5.44 39.09 39.09 0 0 1-14.91-14.84 39.3 39.3 0 0 1-5.44-20.35 38.9 38.9 0 0 1 5.44-20.28 38.81 38.81 0 0 1 14.9-14.91 38.9 38.9 0 0 1 20.3-5.44 39.3 39.3 0 0 1 20.34 5.44 39.09 39.09 0 0 1 14.84 14.9 38.9 38.9 0 0 1 5.44 20.3 38.9 38.9 0 0 1-5.44 20.28 39.09 39.09 0 0 1-14.84 14.9 39.3 39.3 0 0 1-20.35 5.44Z"/><path fill="#F73876" d="M6423.6 3279.63a37.46 37.46 0 0 1-19.58-5.24 36.75 36.75 0 0 1-14.33-14.34 37.4 37.4 0 0 1-5.25-19.51c0-7.23 1.66-13.38 5.25-19.58a36.75 36.75 0 0 1 14.33-14.34 37.46 37.46 0 0 1 19.58-5.24 37.4 37.4 0 0 1 19.52 5.24 36.75 36.75 0 0 1 14.33 14.34 37.46 37.46 0 0 1 5.25 19.58 37.4 37.4 0 0 1-5.25 19.51 36.75 36.75 0 0 1-14.33 14.34 37.4 37.4 0 0 1-19.52 5.24Z"/><path fill="#D16EA1" d="M6560.53 3279.63a37.46 37.46 0 0 1-19.58-5.24 36.75 36.75 0 0 1-14.33-14.34 37.4 37.4 0 0 1-5.25-19.51c0-7.23 1.67-13.38 5.25-19.58a36.75 36.75 0 0 1 14.33-14.34 37.46 37.46 0 0 1 19.58-5.24 37.4 37.4 0 0 1 19.52 5.24 36.75 36.75 0 0 1 14.33 14.34 37.46 37.46 0 0 1 5.25 19.58 37.4 37.4 0 0 1-5.25 19.51 36.75 36.75 0 0 1-14.33 14.34 37.4 37.4 0 0 1-19.52 5.24Z"/><path fill="#ADA2CB" d="M6716.98 3279.63a37.4 37.4 0 0 1-19.51-5.24 36.75 36.75 0 0 1-14.34-14.34 37.4 37.4 0 0 1-5.24-19.51c0-7.23 1.66-13.38 5.24-19.58a36.75 36.75 0 0 1 14.34-14.34 37.4 37.4 0 0 1 19.51-5.24 37.8 37.8 0 0 1 19.58 5.24 37.01 37.01 0 0 1 14.27 14.34 37.46 37.46 0 0 1 5.25 19.58 37.4 37.4 0 0 1-5.25 19.51 37.01 37.01 0 0 1-14.27 14.34 37.78 37.78 0 0 1-19.58 5.24Z"/><path fill="#89D6F4" d="M6853.92 3279.63a37.46 37.46 0 0 1-19.58-5.24 36.75 36.75 0 0 1-14.34-14.34 37.4 37.4 0 0 1-5.24-19.51c0-7.23 1.66-13.38 5.24-19.58a36.75 36.75 0 0 1 14.34-14.34 37.46 37.46 0 0 1 19.58-5.24 37.4 37.4 0 0 1 19.51 5.24 36.75 36.75 0 0 1 14.34 14.34 37.46 37.46 0 0 1 5.25 19.58 37.4 37.4 0 0 1-5.25 19.51 36.75 36.75 0 0 1-14.34 14.34 37.4 37.4 0 0 1-19.51 5.24Z"/><path fill="#F73876" d="M6423.6 3436.08a37.46 37.46 0 0 1-19.58-5.24 37.01 37.01 0 0 1-14.33-14.27 37.78 37.78 0 0 1-5.25-19.58 37.4 37.4 0 0 1 5.25-19.52 36.75 36.75 0 0 1 14.33-14.33 37.46 37.46 0 0 1 19.58-5.25 37.4 37.4 0 0 1 19.52 5.25 36.75 36.75 0 0 1 14.33 14.33 37.4 37.4 0 0 1 5.25 19.52c0 7.16-1.67 13.3-5.25 19.58a37.01 37.01 0 0 1-14.33 14.27 37.4 37.4 0 0 1-19.52 5.24Z"/><path fill="#ADA2CB" d="M6716.98 3436.08a37.4 37.4 0 0 1-19.51-5.24 37.01 37.01 0 0 1-14.34-14.27 37.78 37.78 0 0 1-5.24-19.58 37.4 37.4 0 0 1 5.24-19.52 36.75 36.75 0 0 1 14.34-14.33 37.4 37.4 0 0 1 19.51-5.25 37.7 37.7 0 0 1 19.58 5.25 37.01 37.01 0 0 1 14.27 14.33 37.4 37.4 0 0 1 5.25 19.52c0 7.16-1.66 13.3-5.25 19.58a37.28 37.28 0 0 1-14.27 14.27 37.78 37.78 0 0 1-19.58 5.24Z"/><path fill="#FFF" d="M6560.47 3357.9c-19.58 0-39.16 19.57-39.16 39.15v293.39c0 19.58 19.58 39.16 39.16 39.16s39.16-19.58 39.16-39.16v-293.39c0-19.58-19.58-39.16-39.16-39.16Zm-136.93 136.92c-19.59 0-39.17 19.59-39.17 39.17v156.45c0 19.58 19.58 39.16 39.17 39.16 19.58 0 39.16-19.58 39.16-39.16v-156.45c0-19.58-19.58-39.17-39.16-39.17Zm293.44 0c-19.58 0-39.1 19.52-39.1 39.1v156.52c0 19.58 19.52 39.16 39.1 39.16 19.58 0 39.16-19.58 39.16-39.16v-156.52c0-19.58-19.58-39.1-39.16-39.1Zm136.87-136.92c-19.58 0-39.16 19.57-39.16 39.15v293.39c0 19.58 19.58 39.16 39.16 39.16s39.17-19.58 39.17-39.16v-293.39c0-19.58-19.59-39.16-39.17-39.16Z"/></svg>